<mxfile host="Electron" modified="2024-04-25T10:44:01.351Z" agent="Mozilla/5.0 (X11; Linux x86_64) AppleWebKit/537.36 (KHTML, like Gecko) draw.io/24.2.5 Chrome/120.0.6099.109 Electron/28.1.0 Safari/537.36" etag="XI36oys87til3Qdm2khh" version="24.2.5" type="device">
  <diagram id="C5RBs43oDa-KdzZeNtuy" name="Page-1">
    <mxGraphModel dx="934" dy="1327" grid="1" gridSize="10" guides="1" tooltips="1" connect="1" arrows="1" fold="1" page="1" pageScale="1" pageWidth="960" pageHeight="260" math="0" shadow="0">
      <root>
        <mxCell id="WIyWlLk6GJQsqaUBKTNV-0" />
        <mxCell id="WIyWlLk6GJQsqaUBKTNV-1" parent="WIyWlLk6GJQsqaUBKTNV-0" />
        <mxCell id="VrE6sZuMcQ_JEsaJTfix-29" value="PrintNum" style="swimlane;fontStyle=1;align=center;verticalAlign=top;childLayout=stackLayout;horizontal=1;startSize=30;horizontalStack=0;resizeParent=1;resizeParentMax=0;resizeLast=0;collapsible=0;marginBottom=0;whiteSpace=wrap;html=1;fontSize=14;" parent="WIyWlLk6GJQsqaUBKTNV-1" vertex="1">
          <mxGeometry x="680" y="40" width="240" height="142" as="geometry" />
        </mxCell>
        <mxCell id="OGeXfidwOHUhbuxbb3Ev-73" value="- control: TextInputControl" style="text;strokeColor=none;fillColor=none;align=left;verticalAlign=middle;spacingLeft=4;spacingRight=4;overflow=hidden;rotatable=0;points=[[0,0.5],[1,0.5]];portConstraint=eastwest;whiteSpace=wrap;html=1;fontSize=10;fontFamily=Courier New;" parent="VrE6sZuMcQ_JEsaJTfix-29" vertex="1">
          <mxGeometry y="30" width="240" height="20" as="geometry" />
        </mxCell>
        <mxCell id="OGeXfidwOHUhbuxbb3Ev-74" value="- lastNum: Int" style="text;strokeColor=none;fillColor=none;align=left;verticalAlign=middle;spacingLeft=4;spacingRight=4;overflow=hidden;rotatable=0;points=[[0,0.5],[1,0.5]];portConstraint=eastwest;whiteSpace=wrap;html=1;fontSize=10;fontFamily=Courier New;" parent="VrE6sZuMcQ_JEsaJTfix-29" vertex="1">
          <mxGeometry y="50" width="240" height="20" as="geometry" />
        </mxCell>
        <mxCell id="VrE6sZuMcQ_JEsaJTfix-32" value="" style="line;strokeWidth=1;fillColor=none;align=left;verticalAlign=middle;spacingTop=-1;spacingLeft=3;spacingRight=3;rotatable=0;labelPosition=right;points=[];portConstraint=eastwest;strokeColor=inherit;fontSize=10;fontFamily=Courier New;" parent="VrE6sZuMcQ_JEsaJTfix-29" vertex="1">
          <mxGeometry y="70" width="240" height="8" as="geometry" />
        </mxCell>
        <mxCell id="VrE6sZuMcQ_JEsaJTfix-33" value="+&amp;nbsp;PrintNum&lt;span style=&quot;background-color: initial; font-size: 10px;&quot;&gt;(&lt;/span&gt;&lt;div&gt;&lt;span style=&quot;background-color: initial; font-size: 10px;&quot;&gt;&amp;nbsp; &amp;nbsp; ctrl: TextInputControl,&lt;/span&gt;&lt;/div&gt;&lt;div&gt;&lt;span style=&quot;background-color: initial; font-size: 10px;&quot;&gt;&amp;nbsp; &amp;nbsp; n: Int)&lt;/span&gt;&lt;/div&gt;" style="text;strokeColor=none;fillColor=none;align=left;verticalAlign=middle;spacingLeft=4;spacingRight=4;overflow=hidden;rotatable=0;points=[[0,0.5],[1,0.5]];portConstraint=eastwest;whiteSpace=wrap;html=1;fontSize=10;fontFamily=Courier New;" parent="VrE6sZuMcQ_JEsaJTfix-29" vertex="1">
          <mxGeometry y="78" width="240" height="42" as="geometry" />
        </mxCell>
        <mxCell id="E_jas5TLrmo7t2hISQ8B-0" value="+&amp;nbsp;run()" style="text;strokeColor=none;fillColor=none;align=left;verticalAlign=middle;spacingLeft=4;spacingRight=4;overflow=hidden;rotatable=0;points=[[0,0.5],[1,0.5]];portConstraint=eastwest;whiteSpace=wrap;html=1;fontSize=10;fontFamily=Courier New;" parent="VrE6sZuMcQ_JEsaJTfix-29" vertex="1">
          <mxGeometry y="120" width="240" height="22" as="geometry" />
        </mxCell>
        <mxCell id="OGeXfidwOHUhbuxbb3Ev-76" value="TaskThreadDemo" style="swimlane;fontStyle=1;align=center;verticalAlign=top;childLayout=stackLayout;horizontal=1;startSize=30;horizontalStack=0;resizeParent=1;resizeParentMax=0;resizeLast=0;collapsible=0;marginBottom=0;whiteSpace=wrap;html=1;fontSize=14;" parent="WIyWlLk6GJQsqaUBKTNV-1" vertex="1">
          <mxGeometry x="360" y="40" width="240" height="102" as="geometry" />
        </mxCell>
        <mxCell id="OGeXfidwOHUhbuxbb3Ev-77" value="- area: TextArea" style="text;strokeColor=none;fillColor=none;align=left;verticalAlign=middle;spacingLeft=4;spacingRight=4;overflow=hidden;rotatable=0;points=[[0,0.5],[1,0.5]];portConstraint=eastwest;whiteSpace=wrap;html=1;fontSize=10;fontFamily=Courier New;" parent="OGeXfidwOHUhbuxbb3Ev-76" vertex="1">
          <mxGeometry y="30" width="240" height="20" as="geometry" />
        </mxCell>
        <mxCell id="OGeXfidwOHUhbuxbb3Ev-82" value="" style="line;strokeWidth=1;fillColor=none;align=left;verticalAlign=middle;spacingTop=-1;spacingLeft=3;spacingRight=3;rotatable=0;labelPosition=right;points=[];portConstraint=eastwest;strokeColor=inherit;fontSize=10;fontFamily=Courier New;" parent="OGeXfidwOHUhbuxbb3Ev-76" vertex="1">
          <mxGeometry y="50" width="240" height="8" as="geometry" />
        </mxCell>
        <mxCell id="OGeXfidwOHUhbuxbb3Ev-83" value="+&amp;nbsp;init()" style="text;strokeColor=none;fillColor=none;align=left;verticalAlign=middle;spacingLeft=4;spacingRight=4;overflow=hidden;rotatable=0;points=[[0,0.5],[1,0.5]];portConstraint=eastwest;whiteSpace=wrap;html=1;fontSize=10;fontFamily=Courier New;" parent="OGeXfidwOHUhbuxbb3Ev-76" vertex="1">
          <mxGeometry y="58" width="240" height="22" as="geometry" />
        </mxCell>
        <mxCell id="OGeXfidwOHUhbuxbb3Ev-84" value="+&amp;nbsp;start(stage: Stage)" style="text;strokeColor=none;fillColor=none;align=left;verticalAlign=middle;spacingLeft=4;spacingRight=4;overflow=hidden;rotatable=0;points=[[0,0.5],[1,0.5]];portConstraint=eastwest;whiteSpace=wrap;html=1;fontSize=10;fontFamily=Courier New;" parent="OGeXfidwOHUhbuxbb3Ev-76" vertex="1">
          <mxGeometry y="80" width="240" height="22" as="geometry" />
        </mxCell>
        <mxCell id="xHtxybSg8a37hnDzmeFo-13" value="PrintChar" style="swimlane;fontStyle=1;align=center;verticalAlign=top;childLayout=stackLayout;horizontal=1;startSize=30;horizontalStack=0;resizeParent=1;resizeParentMax=0;resizeLast=0;collapsible=0;marginBottom=0;whiteSpace=wrap;html=1;fontSize=14;" parent="WIyWlLk6GJQsqaUBKTNV-1" vertex="1">
          <mxGeometry x="40" y="40" width="240" height="172" as="geometry" />
        </mxCell>
        <mxCell id="xHtxybSg8a37hnDzmeFo-14" value="- control: TextInputControl" style="text;strokeColor=none;fillColor=none;align=left;verticalAlign=middle;spacingLeft=4;spacingRight=4;overflow=hidden;rotatable=0;points=[[0,0.5],[1,0.5]];portConstraint=eastwest;whiteSpace=wrap;html=1;fontSize=10;fontFamily=Courier New;" parent="xHtxybSg8a37hnDzmeFo-13" vertex="1">
          <mxGeometry y="30" width="240" height="20" as="geometry" />
        </mxCell>
        <mxCell id="LklVr9fy3qKQ77MvSfQL-0" value="- charToPrint: Char" style="text;strokeColor=none;fillColor=none;align=left;verticalAlign=middle;spacingLeft=4;spacingRight=4;overflow=hidden;rotatable=0;points=[[0,0.5],[1,0.5]];portConstraint=eastwest;whiteSpace=wrap;html=1;fontSize=10;fontFamily=Courier New;" parent="xHtxybSg8a37hnDzmeFo-13" vertex="1">
          <mxGeometry y="50" width="240" height="20" as="geometry" />
        </mxCell>
        <mxCell id="xHtxybSg8a37hnDzmeFo-15" value="- times: Int" style="text;strokeColor=none;fillColor=none;align=left;verticalAlign=middle;spacingLeft=4;spacingRight=4;overflow=hidden;rotatable=0;points=[[0,0.5],[1,0.5]];portConstraint=eastwest;whiteSpace=wrap;html=1;fontSize=10;fontFamily=Courier New;" parent="xHtxybSg8a37hnDzmeFo-13" vertex="1">
          <mxGeometry y="70" width="240" height="20" as="geometry" />
        </mxCell>
        <mxCell id="xHtxybSg8a37hnDzmeFo-17" value="" style="line;strokeWidth=1;fillColor=none;align=left;verticalAlign=middle;spacingTop=-1;spacingLeft=3;spacingRight=3;rotatable=0;labelPosition=right;points=[];portConstraint=eastwest;strokeColor=inherit;fontSize=10;fontFamily=Courier New;" parent="xHtxybSg8a37hnDzmeFo-13" vertex="1">
          <mxGeometry y="90" width="240" height="8" as="geometry" />
        </mxCell>
        <mxCell id="xHtxybSg8a37hnDzmeFo-18" value="+&amp;nbsp;PrintChar(&lt;div&gt;&amp;nbsp; &amp;nbsp; ctrl: TextInputControl,&lt;/div&gt;&lt;div&gt;&amp;nbsp; &amp;nbsp; c: Char,&lt;/div&gt;&lt;div&gt;&amp;nbsp; &amp;nbsp; t: Int)&lt;/div&gt;" style="text;strokeColor=none;fillColor=none;align=left;verticalAlign=middle;spacingLeft=4;spacingRight=4;overflow=hidden;rotatable=0;points=[[0,0.5],[1,0.5]];portConstraint=eastwest;whiteSpace=wrap;html=1;fontSize=10;fontFamily=Courier New;" parent="xHtxybSg8a37hnDzmeFo-13" vertex="1">
          <mxGeometry y="98" width="240" height="52" as="geometry" />
        </mxCell>
        <mxCell id="xHtxybSg8a37hnDzmeFo-19" value="+&amp;nbsp;run()" style="text;strokeColor=none;fillColor=none;align=left;verticalAlign=middle;spacingLeft=4;spacingRight=4;overflow=hidden;rotatable=0;points=[[0,0.5],[1,0.5]];portConstraint=eastwest;whiteSpace=wrap;html=1;fontSize=10;fontFamily=Courier New;" parent="xHtxybSg8a37hnDzmeFo-13" vertex="1">
          <mxGeometry y="150" width="240" height="22" as="geometry" />
        </mxCell>
        <mxCell id="LklVr9fy3qKQ77MvSfQL-5" style="edgeStyle=orthogonalEdgeStyle;rounded=0;orthogonalLoop=1;jettySize=auto;html=1;exitX=1;exitY=0.5;exitDx=0;exitDy=0;entryX=0;entryY=0.5;entryDx=0;entryDy=0;" parent="WIyWlLk6GJQsqaUBKTNV-1" source="LklVr9fy3qKQ77MvSfQL-0" edge="1">
          <mxGeometry relative="1" as="geometry">
            <mxPoint x="360" y="100" as="targetPoint" />
          </mxGeometry>
        </mxCell>
        <mxCell id="LklVr9fy3qKQ77MvSfQL-10" style="edgeStyle=orthogonalEdgeStyle;rounded=0;orthogonalLoop=1;jettySize=auto;html=1;exitX=0;exitY=0.5;exitDx=0;exitDy=0;entryX=1;entryY=0.5;entryDx=0;entryDy=0;" parent="WIyWlLk6GJQsqaUBKTNV-1" source="OGeXfidwOHUhbuxbb3Ev-74" edge="1">
          <mxGeometry relative="1" as="geometry">
            <mxPoint x="600" y="100" as="targetPoint" />
          </mxGeometry>
        </mxCell>
      </root>
    </mxGraphModel>
  </diagram>
</mxfile>
